HIERARCHY
ROOT Bip001_Pelvis
{
  OFFSET 34.4345 95.6767 -26.8758
  CHANNELS 6 Xposition Yposition Zposition Zrotation Xrotation Yrotation
  JOINT Bip001_Spine
  {
    OFFSET 1.4188e-005 10.2191 -0.0116013
    CHANNELS 3 Zrotation Xrotation Yrotation
    JOINT Bip001_L_Thigh
    {
      OFFSET 11.0458 -10.2192 0.0116197
      CHANNELS 3 Zrotation Xrotation Yrotation
      JOINT Bip001_L_Calf
      {
        OFFSET -0.707118 -44.0221 0.360014
        CHANNELS 3 Zrotation Xrotation Yrotation
        JOINT Bip001_L_Foot
        {
          OFFSET -0.651902 -40.5938 -3.56146
          CHANNELS 3 Zrotation Xrotation Yrotation
          JOINT Bip001_L_Toe0
          {
            OFFSET 0.0530839 -10.2181 13.1504
            CHANNELS 3 Zrotation Xrotation Yrotation
            End Site
            {
              OFFSET -1.02532e-005 0 7.55606
            }
          }
        }
      }
    }
    JOINT Bip001_R_Thigh
    {
      OFFSET -11.0458 -10.2191 0.0115893
      CHANNELS 3 Zrotation Xrotation Yrotation
      JOINT Bip001_R_Calf
      {
        OFFSET 0.706994 -44.0221 0.35984
        CHANNELS 3 Zrotation Xrotation Yrotation
        JOINT Bip001_R_Foot
        {
          OFFSET 0.651786 -40.5938 -3.5613
          CHANNELS 3 Zrotation Xrotation Yrotation
          JOINT Bip001_R_Toe0
          {
            OFFSET -0.0531479 -10.2181 13.1504
            CHANNELS 3 Zrotation Xrotation Yrotation
            End Site
            {
              OFFSET -1.02894e-005 0 7.55606
            }
          }
        }
      }
    }
    JOINT Bip001_Spine1
    {
      OFFSET 1.87041e-005 14.5736 1.08638
      CHANNELS 3 Zrotation Xrotation Yrotation
      JOINT Bip001_Spine2
      {
        OFFSET 2.24614e-005 14.5058 -1.69078
        CHANNELS 3 Zrotation Xrotation Yrotation
        JOINT Bip001_Neck
        {
          OFFSET 2.20278e-005 15.3945 -0.489414
          CHANNELS 3 Zrotation Xrotation Yrotation
          JOINT Bip001_L_Clavicle
          {
            OFFSET 6.06036 -0.000579998 0.00836775
            CHANNELS 3 Zrotation Xrotation Yrotation
            JOINT Bip001_L_UpperArm
            {
              OFFSET 11.5509 -0.0600302 0.00193952
              CHANNELS 3 Zrotation Xrotation Yrotation
              JOINT Bip001_L_Forearm
              {
                OFFSET 25.9523 0.0806089 -2.15551
                CHANNELS 3 Zrotation Xrotation Yrotation
                JOINT Bip001_L_Hand
                {
                  OFFSET 32.2475 0.153767 1.63968
                  CHANNELS 3 Zrotation Xrotation Yrotation
                  JOINT Bip001_L_Finger0
                  {
                    OFFSET 6.04639 -2.20976 5.90322
                    CHANNELS 3 Zrotation Xrotation Yrotation
                    End Site
                    {
                      OFFSET 4.22375 -1.43895 0.606485
                    }
                  }
                  JOINT Bip001_L_Finger1
                  {
                    OFFSET 11.0826 -0.704819 -0.198153
                    CHANNELS 3 Zrotation Xrotation Yrotation
                    End Site
                    {
                      OFFSET 6.20027 -0.397518 -0.0787166
                    }
                  }
                }
              }
            }
          }
          JOINT Bip001_R_Clavicle
          {
            OFFSET -6.06037 -0.000563197 0.00835105
            CHANNELS 3 Zrotation Xrotation Yrotation
            JOINT Bip001_R_UpperArm
            {
              OFFSET -11.5509 -0.0599978 0.00190698
              CHANNELS 3 Zrotation Xrotation Yrotation
              JOINT Bip001_R_Forearm
              {
                OFFSET -25.9523 0.0806822 -2.15589
                CHANNELS 3 Zrotation Xrotation Yrotation
                JOINT Bip001_R_Hand
                {
                  OFFSET -32.2475 0.153859 1.63989
                  CHANNELS 3 Zrotation Xrotation Yrotation
                  JOINT Bip001_R_Finger0
                  {
                    OFFSET -6.04641 -2.20976 5.90317
                    CHANNELS 3 Zrotation Xrotation Yrotation
                    End Site
                    {
                      OFFSET -4.22376 -1.43895 0.60647
                    }
                  }
                  JOINT Bip001_R_Finger1
                  {
                    OFFSET -11.0826 -0.704794 -0.198182
                    CHANNELS 3 Zrotation Xrotation Yrotation
                    End Site
                    {
                      OFFSET -6.20028 -0.397504 -0.0787333
                    }
                  }
                }
              }
            }
          }
          JOINT Bip001_Head
          {
            OFFSET 1.09673e-005 11.2744 2.05948
            CHANNELS 3 Zrotation Xrotation Yrotation
            End Site
            {
              OFFSET 2.89576e-005 20.8808 -2.77728e-005
            }
          }
        }
      }
    }
  }
}
MOTION
Frames:	10
Frame Time:	0.04
33.7232 96.0111 -27.7197 -0.305475 1.75201 4.51766 -0.174433 1.46633 -0.75245 5.51897 -4.35802 6.22784 -0.879196 7.20002 -8.59441 1.55271 -4.81679 0.00720623 0.182539 -3.45569 0.324716 -2.7191 -2.82521 -0.916644 0.0534845 8.66837 -0.449901 -6.12662 -8.13669 -0.294094 2.34838 -7.91526 2.41625 -0.329855 2.93484 -1.50273 -0.329871 2.93483 -1.50198 1.96583 -6.03556 -2.6574 -24.8905 5.91538 3.10888 -58.6771 43.8058 8.87478 15.7925 -8.20602 -26.6562 7.33662 0.828765 -1.62693 1.59028e-015 0 3.18055e-015 3.18055e-015 -3.18056e-015 -0 2.90518 11.7403 39.3128 95.2645 -55.4242 103.342 -35.2264 14.4276 86.1254 -18.0173 -3.84198 7.43957 -9.93923e-017 3.18055e-015 -5.46658e-016 -2.48481e-017 3.18056e-015 -3.47873e-016 -0.332078 -6.21288 -2.05095 
33.5482 96.0114 -27.6879 -0.392859 1.83705 4.61834 -0.134001 1.45985 -0.773089 5.60481 -4.44874 6.42842 -0.822406 7.14824 -8.96032 2.70183 -4.27367 -0.0220623 0.540176 -4.03787 -0.0339388 -2.53987 -2.85801 -0.543446 0.0976675 8.61026 -0.536601 -6.23248 -8.08257 -0.642653 2.32434 -7.85048 2.40152 -0.248788 2.92014 -1.5458 -0.248711 2.92016 -1.54469 1.75147 -6.17523 -2.55244 -24.4171 6.03123 3.30147 -59.2252 44.1335 8.97764 15.756 -8.31498 -26.8087 7.43536 0.934742 -1.69455 3.53112e-031 6.36111e-015 -3.18055e-015 0 6.36111e-015 -0 2.79723 11.8679 39.9328 97.2198 -54.2348 106.484 -31.8808 14.0799 82.0816 -24.9054 -1.40253 6.4972 -3.18055e-015 0 7.95139e-016 -7.95139e-016 -6.36111e-015 7.95139e-016 -0.308462 -5.67594 -2.01323 
33.5144 96.0206 -27.6383 -0.282297 1.71483 4.63013 -0.125168 1.50158 -0.780358 5.42703 -4.2374 6.74902 -0.593054 6.93714 -9.19817 2.26979 -4.35461 -0.00761175 0.50638 -3.90416 -0.0149034 -2.69447 -2.80148 -0.684488 0.201028 8.74953 -0.469385 -6.21233 -8.19397 -0.570101 2.29391 -7.75104 2.36742 -0.227463 3.00463 -1.55893 -0.228708 3.00457 -1.55872 1.91225 -5.83623 -2.54635 -24.194 5.73104 3.14112 -59.8771 44.3785 8.8448 16.202 -7.69732 -26.5963 7.13688 0.892709 -1.88463 -3.53112e-031 -6.36111e-015 -3.18055e-015 -0 -9.54167e-015 -0 2.32467 11.2671 39.416 97.1319 -57.564 106.438 -33.1936 15.2477 82.7459 -26.47 -0.526824 5.42583 -7.95139e-016 -3.18055e-015 3.97569e-016 -2.38542e-015 0 -3.97569e-016 -0.508631 -6.04528 -1.91444 
33.4783 96.0704 -27.5784 -0.111192 1.59531 4.17219 -0.136546 1.52483 -0.704757 5.38618 -3.87401 7.99091 -0.486933 6.76021 -9.55242 0.709301 -5.19222 0.0199185 0.0814604 -2.78691 0.222273 -2.79746 -2.77201 -0.317613 0.169227 8.80512 -0.342779 -6.18304 -8.11781 -0.662977 2.26979 -7.64642 2.30012 -0.254539 3.05126 -1.40633 -0.254517 3.05125 -1.40647 2.49768 -5.49681 -2.61271 -24.9165 5.41207 2.85856 -60.0516 43.8336 9.41193 16.5435 -7.08935 -27.3294 7.03394 1.03462 -2.0199 -3.18055e-015 3.18055e-015 3.18055e-015 -3.18055e-015 0 3.18055e-015 1.10879 10.3598 37.4274 86.1499 -59.7989 97.5785 -31.976 14.2335 79.7486 -26.911 1.99463 3.05133 -1.19271e-015 -3.18055e-015 -2.18663e-015 -1.59028e-015 -3.18056e-015 -3.97569e-015 -1.10341 -6.28656 -1.73996 
33.4243 96.1049 -27.6749 -0.202354 1.9124 3.98362 -0.144114 1.45572 -0.687834 5.53908 -4.25724 7.46708 -0.507273 6.96749 -8.48304 -0.147929 -5.6374 0.0228837 -0.057183 -2.19645 0.281989 -2.63638 -3.04512 -0.115153 0.0869618 8.62082 -0.294431 -6.12383 -7.906 -0.723329 2.24017 -7.54887 2.258 -0.270905 2.91306 -1.37266 -0.270868 2.91307 -1.37266 2.80472 -5.48489 -2.67359 -25.3501 5.46037 2.54037 -59.8024 43.5354 9.67434 16.1216 -7.37803 -27.628 7.44714 0.861312 -2.31055 -1.76556e-031 -3.18055e-015 -3.18055e-015 -0 -6.36111e-015 -0 0.386568 9.96011 35.9229 70.3119 -60.6783 84.1712 -31.4513 10.7877 75.1217 -23.3364 3.36494 3.748 3.97569e-016 -3.18055e-015 -0 3.97569e-016 -6.36111e-015 -0 -1.3234 -6.14197 -1.68462 
33.4397 96.1257 -27.6729 0.0607373 1.8931 3.51852 -0.209147 1.45629 -0.628051 5.28152 -3.9382 7.33498 -0.438357 6.54837 -7.77336 -0.665775 -5.6921 0.0228292 -0.172825 -1.81594 0.356349 -2.88343 -3.26724 -0.143878 0.0873361 9 -0.187326 -5.98582 -8.09287 -0.426242 2.1901 -7.41742 2.24497 -0.402546 2.9148 -1.25142 -0.402615 2.91484 -1.2514 2.48962 -5.68872 -2.65697 -25.0481 5.6647 2.6377 -59.7528 43.8512 9.30054 15.9322 -7.7023 -27.1308 7.43421 0.628449 -2.29712 5.29669e-031 9.54166e-015 -3.18055e-015 1.41245e-030 1.27222e-014 -6.36111e-015 1.22229 10.1933 34.5728 65.7044 -61.2117 78.8676 -29.021 9.91099 75.7097 -19.2021 3.05338 5.75792 -8.82781e-032 -1.27222e-014 -3.97569e-016 -4.41391e-032 -6.36111e-015 -3.97569e-016 -1.05057 -5.9377 -1.79233 
33.4353 96.1164 -27.6067 0.278617 1.68447 3.16215 -0.24064 1.48123 -0.572033 4.92807 -3.43101 7.68283 -0.121448 6.06593 -7.85012 -0.709284 -5.49984 0.0227282 -0.0931784 -1.87214 0.343356 -3.1776 -3.26626 -0.373395 0.218501 9.39479 -0.0633846 -5.90995 -8.39228 -0.0260348 2.15409 -7.29884 2.19772 -0.469852 2.96521 -1.13766 -0.468238 2.96524 -1.13805 2.58269 -5.70849 -2.66399 -25.15 5.63436 2.78993 -59.9385 44.1998 8.90192 16.1868 -7.63568 -26.6107 7.16628 0.879678 -2.01818 0 0 -6.36111e-015 -3.18055e-015 0 -3.18055e-015 3.83952 11.1151 33.6885 69.7787 -64.7127 79.4436 -28.022 13.8342 82.5594 -17.7023 1.82723 7.238 4.77083e-015 -3.18055e-015 -2.38542e-015 1.59028e-015 0 -1.59028e-015 -1.26392 -6.04991 -1.74766 
33.3398 96.1099 -27.5513 0.372577 1.46061 3.13353 -0.231684 1.49396 -0.534961 4.85542 -3.07796 7.44586 -0.0904001 5.83643 -7.67283 -0.715087 -5.34964 0.0225996 -0.0415815 -1.96904 0.288163 -3.26544 -3.1184 -0.56097 0.276607 9.61781 -0.00326922 -5.89835 -8.56514 0.11938 2.13185 -7.23688 2.18458 -0.454023 2.98992 -1.06622 -0.455844 2.98997 -1.06444 3.29784 -5.98961 -2.98777 -26.1319 5.71701 3.13095 -60.1335 44.2522 8.76913 16.3193 -7.78137 -26.5735 6.86438 1.02877 -1.66625 -0 0 3.18055e-015 -3.18055e-015 0 3.18055e-015 6.57697 12.4763 32.6994 71.7528 -68.2802 76.6193 -28.8916 16.5041 91.1033 -18.6939 1.28391 7.17931 3.18055e-015 6.36111e-015 -2.38542e-015 3.18055e-015 9.54167e-015 -2.38542e-015 -2.0436 -5.48841 -1.74772 
33.2504 96.0982 -27.5114 0.470083 1.26758 3.25784 -0.24524 1.51244 -0.530269 4.79614 -2.86684 6.87733 -0.0924337 5.73617 -7.32059 -0.577411 -5.17882 0.0224488 -0.0110189 -2.09179 0.254902 -3.3252 -2.97154 -0.812713 0.316261 9.8028 0.02207 -5.94416 -8.75997 0.217294 2.12368 -7.2037 2.16839 -0.476807 3.02709 -1.0549 -0.476724 3.0271 -1.0553 3.55052 -6.32835 -3.04999 -26.5436 6.02458 3.15536 -60.1465 44.2539 8.75189 16.0199 -8.33316 -26.8807 7.10035 0.960516 -1.61678 1.76556e-031 -3.18055e-015 3.18055e-015 -6.36111e-015 0 3.18055e-015 10.0943 13.9002 31.3033 70.4271 -72.8358 68.9973 -30.8785 18.3457 100.921 -20.3105 1.00735 6.80007 0 3.18055e-015 -0 -3.18055e-015 -3.18056e-015 -0 -2.40817 -4.9877 -1.66551 
33.1919 96.0704 -27.4809 0.578748 1.0866 3.25594 -0.305406 1.5425 -0.528902 4.75873 -2.67443 7.17194 -0.0210446 5.69076 -7.65253 -0.466559 -5.08684 0.0222869 0.0750782 -2.24302 0.165082 -3.34668 -2.91408 -0.860605 0.349396 10.0687 0.0517198 -6.03489 -8.97118 0.227707 2.13834 -7.2442 2.16861 -0.596484 3.08773 -1.05025 -0.596651 3.08772 -1.0509 3.9081 -6.49359 -3.04126 -26.8078 6.20088 3.04832 -60.116 44.1962 8.76769 15.8437 -8.65701 -27.2896 7.22535 0.743291 -1.85945 6.36111e-015 -6.36111e-015 -3.18055e-015 9.54166e-015 0 -3.18055e-015 13.01 14.9335 30.1048 56.755 -76.2246 47.3539 -32.554 17.9188 108.892 -21.5022 0.928221 7.40621 3.18055e-015 -3.18055e-015 -0 6.36111e-015 3.18056e-015 -1.59028e-015 -2.69922 -4.93409 -1.51454 
